HIERARCHY
ROOT Hips
{
	OFFSET 0.000000 0.000000 0.000000
	CHANNELS 6 Xposition Yposition Zposition Xrotation Yrotation Zrotation
	JOINT LeftUpLeg_virtual
	{
		OFFSET 0.000000 0.000000 0.000000
		CHANNELS 3 Xrotation Yrotation Zrotation
		JOINT LeftUpLeg
		{
			OFFSET 13.026900 -6.336304 -1.092800
			CHANNELS 3 Xrotation Yrotation Zrotation
			JOINT LeftLeg
			{
				OFFSET 0.524474 -46.096886 9.782700
				CHANNELS 3 Xrotation Yrotation Zrotation
				JOINT LeftFoot
				{
					OFFSET -0.524474 -53.427422 -12.948200
					CHANNELS 3 Xrotation Yrotation Zrotation
					JOINT LeftToeBase
					{
						OFFSET 0.192200 -14.009700 16.364100
						CHANNELS 3 Xrotation Yrotation Zrotation
						JOINT LeftToe_End
						{
							OFFSET -1.784700 -0.561700 9.474800
							CHANNELS 3 Xrotation Yrotation Zrotation
							End Site
							{
								OFFSET 0 0 0
							}
						}
					}
				}
			}
		}
	}
	JOINT RightUpLeg_virtual
	{
		OFFSET 0.000000 0.000000 0.000000
		CHANNELS 3 Xrotation Yrotation Zrotation
		JOINT RightUpLeg
		{
			OFFSET -12.883000 -6.336304 -1.092800
			CHANNELS 3 Xrotation Yrotation Zrotation
			JOINT RightLeg
			{
				OFFSET -0.524587 -46.096825 9.782800
				CHANNELS 3 Xrotation Yrotation Zrotation
				JOINT RightFoot
				{
					OFFSET 0.524587 -53.427383 -12.948300
					CHANNELS 3 Xrotation Yrotation Zrotation
					JOINT RightToeBase
					{
						OFFSET -0.192200 -14.009700 16.364100
						CHANNELS 3 Xrotation Yrotation Zrotation
						JOINT RightToe_End
						{
							OFFSET 1.784700 -0.561700 9.474800
							CHANNELS 3 Xrotation Yrotation Zrotation
							End Site
							{
								OFFSET 0 0 0
							}
						}
					}
				}
			}
		}
	}
	JOINT Spine_virtual
	{
		OFFSET 0.000000 0.000000 0.000000
		CHANNELS 3 Xrotation Yrotation Zrotation
		JOINT Spine
		{
			OFFSET 0.072000 7.257294 -0.789700
			CHANNELS 3 Xrotation Yrotation Zrotation
			JOINT Spine1
			{
				OFFSET 0.000000 12.508769 -0.658067
				CHANNELS 3 Xrotation Yrotation Zrotation
				JOINT Spine1_split
				{
					OFFSET 0.000000 12.508769 -0.658067
					CHANNELS 3 Xrotation Yrotation Zrotation
					JOINT Spine2
					{
						OFFSET 0.000000 12.508769 -0.658067
						CHANNELS 3 Xrotation Yrotation Zrotation
						JOINT Neck_virtual
						{
							OFFSET 0.000000 0.000000 0.000000
							CHANNELS 3 Xrotation Yrotation Zrotation
							JOINT Neck
							{
								OFFSET 0.000000 14.033295 7.520400
								CHANNELS 3 Xrotation Yrotation Zrotation
								JOINT Head
								{
									OFFSET 0.000000 8.198502 5.703100
									CHANNELS 3 Xrotation Yrotation Zrotation
									JOINT HeadTop_End
									{
										OFFSET 0.000000 17.760803 13.332701
										CHANNELS 3 Xrotation Yrotation Zrotation
										End Site
										{
											OFFSET 0 0 0
										}
									}
								}
							}
						}
						JOINT LeftShoulder_virtual
						{
							OFFSET 0.000000 0.000000 0.000000
							CHANNELS 3 Xrotation Yrotation Zrotation
							JOINT LeftShoulder
							{
								OFFSET 6.292450 5.785301 -0.669000
								CHANNELS 3 Xrotation Yrotation Zrotation
								JOINT LeftShoulder_split
								{
									OFFSET 6.292450 5.785301 -0.669000
									CHANNELS 3 Xrotation Yrotation Zrotation
									JOINT LeftArm
									{
										OFFSET 13.907140 -6.093903 1.965100
										CHANNELS 3 Xrotation Yrotation Zrotation
										JOINT LeftForeArm
										{
											OFFSET 34.140198 0.000000 0.000000
											CHANNELS 3 Xrotation Yrotation Zrotation
											JOINT LeftHand
											{
												OFFSET 40.960209 0.000000 0.000000
												CHANNELS 3 Xrotation Yrotation Zrotation
												End Site
												{
													OFFSET 0 0 0
												}
											}
										}
									}
								}
							}
						}
						JOINT RightShoulder_virtual
						{
							OFFSET 0.000000 0.000000 0.000000
							CHANNELS 3 Xrotation Yrotation Zrotation
							JOINT RightShoulder
							{
								OFFSET -6.292450 5.785301 -0.669000
								CHANNELS 3 Xrotation Yrotation Zrotation
								JOINT RightShoulder_split
								{
									OFFSET -6.292450 5.785301 -0.669000
									CHANNELS 3 Xrotation Yrotation Zrotation
									JOINT RightArm
									{
										OFFSET -13.907140 -6.093903 1.965100
										CHANNELS 3 Xrotation Yrotation Zrotation
										JOINT RightForeArm
										{
											OFFSET -34.140198 0.000000 0.000000
											CHANNELS 3 Xrotation Yrotation Zrotation
											JOINT RightHand
											{
												OFFSET -40.960209 0.000000 0.000000
												CHANNELS 3 Xrotation Yrotation Zrotation
												End Site
												{
													OFFSET 0 0 0
												}
											}
										}
									}
								}
							}
						}
					}
				}
			}
		}
	}
}
MOTION
Frames: 6
Frame Time: 0.03333333
17.734135 110.123306 -14.944996 0.000000 0.000000 0.000000 4.159691 -31.104989 4.158276 -14.342757 19.243428 3.124599 28.924304 10.535731 5.159188 -11.286729 15.920059 -15.932881 -0.782395 -2.747280 -0.014201 0.000000 0.000000 0.000000 4.663816 -33.888680 4.366346 -16.997537 -31.407587 -13.501658 30.264046 -4.584715 -0.059354 -15.361796 -7.087539 18.430907 4.323837 2.176830 -13.370049 0.000000 0.000000 0.000000 5.377381 -30.371194 3.376979 6.268301 -8.155564 -1.387839 1.539771 -4.565755 -0.970683 0.077298 -0.492161 -0.001334 0.000000 0.000000 0.000000 1.878134 -3.316690 -0.286895 -7.609617 12.788290 5.095221 -1.561124 40.762671 16.683128 0.000000 0.000000 0.000000 1.147667 -4.594211 -0.486519 -0.022944 2.171085 5.231494 -0.436836 -3.833812 -1.649641 11.042609 19.364807 -65.148298 5.310201 -50.170922 -0.159861 0.000000 0.000000 0.000000 1.745636 -5.102407 -0.813264 0.830305 -11.941115 -6.156196 -5.481431 3.706508 0.480572 -3.814851 3.259123 77.236810 5.921482 46.660683 -0.386840 0.000000 0.000000 0.000000 
17.076296 110.225716 -15.648701 0.000000 0.000000 0.000000 3.878691 -34.300346 4.263698 -13.328958 20.149242 3.335373 29.291362 12.020895 4.935969 -11.190806 17.131953 -17.115382 -1.676872 -2.780098 -0.327447 0.000000 0.000000 0.000000 4.430896 -37.091192 4.525707 -15.775135 -31.371844 -13.343094 29.777081 -5.264495 -0.238692 -15.584139 -8.351820 18.863746 5.071735 2.170253 -13.619650 0.000000 0.000000 0.000000 5.057389 -33.725405 3.604643 6.039534 -8.065381 -1.504504 1.766024 -4.443669 -0.879948 0.085825 -0.518036 0.017873 0.000000 0.000000 0.000000 1.883924 -3.251733 -0.125127 -7.793383 13.383932 5.498434 -1.856117 41.442921 17.143572 0.000000 0.000000 0.000000 1.134330 -4.462882 -0.384416 -0.176479 2.013316 6.275720 -0.202653 -4.347695 -1.562042 10.877394 19.196827 -64.984039 5.454318 -50.100387 0.100062 0.000000 0.000000 0.000000 1.756640 -5.054187 -0.757194 0.701845 -11.397047 -6.182119 -5.932082 3.439385 0.285180 -4.341516 2.116449 76.963678 6.331815 45.772543 -0.580430 0.000000 0.000000 0.000000 
16.228941 110.355217 -16.493313 0.000000 0.000000 0.000000 3.435391 -37.040830 4.014212 -13.286738 20.811906 4.380464 30.581912 13.245464 4.378331 -10.208316 17.688030 -18.098043 -3.175460 -2.782982 -0.723634 0.000000 0.000000 0.000000 3.939189 -39.629376 4.281753 -15.201662 -30.827997 -13.097154 29.462940 -5.521130 -0.350736 -14.976452 -9.204319 19.512153 4.895994 2.200502 -13.646656 0.000000 0.000000 0.000000 4.696820 -36.534996 3.567503 5.870650 -7.715958 -1.474946 2.079830 -4.283786 -0.772575 0.094662 -0.514393 0.044356 0.000000 0.000000 0.000000 1.977463 -3.131684 0.051238 -8.140453 13.886178 5.818460 -2.104353 41.682660 17.475048 0.000000 0.000000 0.000000 1.184369 -4.300970 -0.286991 -0.366607 1.815849 7.101007 -0.156983 -4.686671 -1.522815 10.624816 18.768631 -64.740447 5.080910 -49.816388 -0.061000 0.000000 0.000000 0.000000 1.805269 -4.945582 -0.659631 0.614914 -10.905025 -6.020135 -6.289122 3.086945 0.041162 -4.844611 1.082753 76.287619 5.963807 44.636389 -0.188043 0.000000 0.000000 0.000000 
15.273290 110.567734 -17.249126 0.000000 0.000000 0.000000 2.896733 -39.299542 3.490373 -14.286586 21.144944 6.155279 32.502401 14.144981 3.590059 -8.462483 17.459376 -18.440618 -5.257199 -2.753748 -1.221285 0.000000 0.000000 0.000000 3.321243 -41.606999 3.747706 -14.964113 -29.951974 -12.700592 29.056868 -5.384118 -0.460438 -14.084453 -9.663037 20.302534 4.022342 2.244492 -13.454659 0.000000 0.000000 0.000000 4.304188 -38.864237 3.328208 5.750597 -7.123667 -1.337571 2.450826 -4.070466 -0.655737 0.113574 -0.508673 0.054499 0.000000 0.000000 0.000000 2.136131 -2.942679 0.243477 -8.566387 14.261075 6.052797 -2.172563 41.509081 17.622043 0.000000 0.000000 0.000000 1.277607 -4.105048 -0.203519 -0.573099 1.559220 7.687209 -0.285631 -4.862615 -1.467860 10.302881 18.011625 -64.413820 4.290674 -49.337052 -0.551486 0.000000 0.000000 0.000000 1.879035 -4.759567 -0.511660 0.567200 -10.493214 -5.685919 -6.551292 2.837757 -0.181423 -5.261148 0.143918 75.246924 4.950336 43.182310 0.669759 0.000000 0.000000 0.000000 
14.242906 110.846931 -17.839268 0.000000 0.000000 0.000000 2.279514 -41.122254 2.788836 -16.048670 20.955179 8.286216 34.565552 14.630725 2.709520 -6.425886 16.489311 -17.805181 -7.461620 -2.675904 -1.895676 0.000000 0.000000 0.000000 2.772838 -43.231197 3.120110 -14.576259 -29.001355 -11.971463 28.537948 -5.251699 -0.517300 -13.591244 -10.071648 20.278123 3.551146 2.198316 -12.997439 0.000000 0.000000 0.000000 3.840090 -40.768696 2.922093 5.653463 -6.329059 -1.155210 2.826813 -3.797247 -0.531742 0.142802 -0.513909 0.060470 0.000000 0.000000 0.000000 2.307679 -2.687187 0.448006 -8.993347 14.477607 6.248983 -1.987677 40.994317 17.487241 0.000000 0.000000 0.000000 1.375003 -3.873244 -0.130646 -0.789139 1.249760 8.060556 -0.483794 -4.890837 -1.443790 9.974463 16.867769 -64.068861 3.285493 -48.759211 -1.187794 0.000000 0.000000 0.000000 1.973108 -4.495797 -0.311556 0.561032 -10.222859 -5.212818 -6.765989 2.732185 -0.347547 -5.474856 -0.745553 73.930480 3.503602 41.469408 1.792618 0.000000 0.000000 0.000000 
13.171397 111.144539 -18.256748 0.000000 0.000000 0.000000 1.719420 -42.618437 2.084826 -18.360354 20.249677 10.451182 36.387662 14.490274 1.857006 -4.497876 14.815169 -16.340466 -9.223078 -2.530965 -2.709739 0.000000 0.000000 0.000000 2.303060 -44.667023 2.516852 -13.929682 -28.077451 -10.960218 27.843567 -5.310097 -0.476151 -13.722898 -10.619559 19.147389 4.226312 2.015402 -12.296641 0.000000 0.000000 0.000000 3.286951 -42.378332 2.437719 5.583257 -5.399244 -0.944363 3.169179 -3.475171 -0.394946 0.155782 -0.537139 0.076469 0.000000 0.000000 0.000000 2.437023 -2.371537 0.659318 -9.330498 14.543033 6.471183 -1.517792 40.252173 16.984165 0.000000 0.000000 0.000000 1.426962 -3.604769 -0.058068 -1.002701 0.879827 8.251930 -0.714380 -4.737276 -1.393474 9.731682 15.404814 -63.809103 2.280674 -48.221443 -1.797581 0.000000 0.000000 0.000000 2.061241 -4.155692 -0.071863 0.592862 -10.143672 -4.681372 -6.873794 2.868619 -0.513100 -5.455479 -1.691579 72.396132 1.820480 39.693836 3.003205 0.000000 0.000000 0.000000 
